<svg xmlns="http://www.w3.org/2000/svg" version="1.1" xmlns:xlink="http://www.w3.org/1999/xlink" xmlns:svgjs="http://svgjs.dev/svgjs" width="1000" height="315" viewBox="0 0 1000 315"><g transform="matrix(1,0,0,1,-0.6056348047761162,0.4987144596309747)"><svg viewBox="0 0 396 125" data-background-color="#cea458" preserveAspectRatio="xMidYMid meet" height="315" width="1000" xmlns="http://www.w3.org/2000/svg" xmlns:xlink="http://www.w3.org/1999/xlink"><g id="tight-bounds" transform="matrix(1,0,0,1,0.24008861730862918,-0.19790256334562173)"><svg viewBox="0 0 395.52 125.39580512669124" height="125.39580512669124" width="395.52"><g><svg viewBox="0 0 395.52 125.39580512669124" height="125.39580512669124" width="395.52"><g><svg viewBox="0 0 395.52 125.39580512669124" height="125.39580512669124" width="395.52"><g id="textblocktransform"><svg viewBox="0 0 395.52 125.39580512669124" height="125.39580512669124" width="395.52" id="textblock"><g><svg viewBox="0 0 395.52 125.39580512669124" height="125.39580512669124" width="395.52"><path d="M394.594 26.895C392.735 13.879 387.435 10.261 387.435 10.261 371.165-3.146 350.86-0.256 332.619 1.67 300.414 1.748 268.339 4.612 236.208 6.147 168.767 6.382 100.749 2.529 33.643 12.031 27.339 14.946-6.54 12.603 1.121 28.561 3.129 35.199 10.456 42.566 10.232 48.658 11.236 49.725 12.631 47.278 13.226 48.814 15.309 52.953 18.711 51.001 21.501 53.448 17.614 59.982 20.403 65.422 23.062 71.124 18.377 72.607 12.371 71.904 9.675 76.825 9.396 80.391 7.89 79.714 6.235 79.558 5.026 79.454 2.59 79.844 2.999 80.964 4.394 84.79-1.594 87.003 2.162 90.752-0.422 94.813 3.948 98.327 3.353 102.726 3.278 103.612 3.687 104.366 4.338 104.575 7.22 105.694 3.018 107.881 3.464 110.25 33.029 126.442 65.104 115.248 95.394 122.693 103.259 117.487 97.346 124.541 100.489 123.448 102.943 122.172 104.728 127.457 107.499 124.463 107.927 123.604 107.276 121.574 108.8 121.964 109.6 122.172 110.307 122.12 110.418 120.923 110.586 119.127 109.117 120.246 108.726 119.309 112.947 114.571 111.906 125.843 115.866 125.374 115.68 123.995 114.528 122.016 116.889 122.277 119.232 120.298 119.306 118.658 121.389 123.11 121.463 124.073 121.835 124.75 122.43 125.218 128.938 120.376 135.409 126.936 142.233 124.75 146.417 122.355 150.433 126.051 154.672 125.14 156.16 124.411 157.666 123.11 159.098 125.296 176.632 125.765 195.319 123.812 211.943 125.374 256.364 122.459 303.836 126.572 350.674 122.719 361.719 121.235 373.192 119.127 383.958 117.435 383.958 117.435 392.679 112.801 392.679 91.975S394.538 73.753 394.817 57.17C395.096 40.588 396.398 39.911 394.538 26.895Z" opacity="1" fill="#baba7b" data-fill-palette-color="tertiary"></path><g transform="matrix(1,0,0,1,55.76832,26.230666666666668)"><svg width="283.98335999999995" viewBox="1.1 -33.9 135.49 34.8" height="72.93447179335791" data-palette-color="#ffffff"><path d="M13.8 0L1.1 0 1.1-0.5 2-0.85Q3-1.25 3.38-1.85 3.75-2.45 3.75-3.45L3.75-3.45 3.75-29.55Q3.75-30.6 3.38-31.2 3-31.8 2-32.15L2-32.15 1.1-32.5 1.1-33 15.45-33Q21.55-33 24.25-30.78 26.95-28.55 26.95-25.15L26.95-25.15Q26.95-22.6 24.98-20.53 23-18.45 18.2-17.6L18.2-17.6Q23.7-17 26.25-14.73 28.8-12.45 28.8-9.2L28.8-9.2Q28.8-7.6 28.1-5.98 27.4-4.35 25.73-3 24.05-1.65 21.15-0.83 18.25 0 13.8 0L13.8 0ZM11.15-32L11.15-17.65 13.3-17.65Q16.65-17.65 18.13-19.2 19.6-20.75 19.6-24.6L19.6-24.6Q19.6-28.6 18.25-30.3 16.9-32 13.85-32L13.85-32 11.15-32ZM11.15-16.65L11.15-1 13.65-1Q17.4-1 19.23-3 21.05-5 21.05-9.25L21.05-9.25Q21.05-13.25 19.3-14.95 17.55-16.65 13.55-16.65L13.55-16.65 11.15-16.65ZM43.85 0L31 0 31-0.5 32-0.9Q33-1.25 33.32-1.85 33.65-2.45 33.65-3.45L33.65-3.45 33.65-29.55Q33.65-30.55 33.35-31.15 33.05-31.75 32-32.1L32-32.1 31-32.5 31-33 43.85-33 43.85-32.5 42.85-32.1Q41.85-31.75 41.52-31.15 41.2-30.55 41.2-29.55L41.2-29.55 41.2-3.45Q41.2-2.45 41.52-1.88 41.85-1.3 42.85-0.9L42.85-0.9 43.85-0.5 43.85 0ZM71 0L46.05 0 46.05-0.5 47.2-0.95Q48.05-1.3 48.37-1.88 48.7-2.45 48.7-3.45L48.7-3.45 48.7-29.55Q48.7-30.55 48.42-31.13 48.15-31.7 47.2-32.05L47.2-32.05 46.05-32.5 46.05-33 70-33 70.3-25.3 69.8-25.3 67.65-30Q67.2-30.9 66.7-31.45 66.2-32 65.2-32L65.2-32 56.2-32 56.2-17.55 61.55-17.55Q62.55-17.55 63.07-18.07 63.6-18.6 64-19.5L64-19.5 65-21.5 65.5-21.5 65.5-12.5 65-12.5 64-14.6Q63.55-15.5 63.05-16.03 62.55-16.55 61.55-16.55L61.55-16.55 56.2-16.55 56.2-1 66.3-1Q67.3-1 67.85-1.53 68.4-2.05 68.75-3L68.75-3 70.8-7.7 71.3-7.7 71 0ZM86.59 0L73.79 0 73.79-0.5 74.84-0.85Q75.84-1.2 76.14-1.78 76.44-2.35 76.44-3.4L76.44-3.4 76.44-29.55Q76.44-30.55 76.17-31.13 75.89-31.7 74.94-32.05L74.94-32.05 73.79-32.5 73.79-33 88.09-33Q93.99-33 97.14-30.78 100.29-28.55 100.29-24.6L100.29-24.6Q100.29-22.4 98.64-20.2 96.99-18 93.44-16.8L93.44-16.8 100.39-3Q100.84-2.15 101.42-1.63 101.99-1.1 102.94-0.7L102.94-0.7 103.59-0.45 103.59 0 94.64 0 87.24-15.75 83.84-15.75 83.84-3.4Q83.84-2.45 84.14-1.85 84.44-1.25 85.39-0.95L85.39-0.95 86.59-0.5 86.59 0ZM83.84-32L83.84-16.75 86.24-16.75Q89.84-16.75 91.44-18.68 93.04-20.6 93.04-24.4L93.04-24.4Q93.04-28.25 91.54-30.13 90.04-32 86.49-32L86.49-32 83.84-32ZM120.84 0.9L120.84 0.9Q117.79 0.9 114.97-0.2 112.14-1.3 109.92-3.48 107.69-5.65 106.39-8.9 105.09-12.15 105.09-16.5L105.09-16.5Q105.09-20.8 106.39-24.05 107.69-27.3 109.94-29.48 112.19-31.65 115.02-32.77 117.84-33.9 120.84-33.9L120.84-33.9Q123.89-33.9 126.72-32.83 129.54-31.75 131.77-29.58 133.99-27.4 135.29-24.13 136.59-20.85 136.59-16.5L136.59-16.5Q136.59-12.25 135.29-8.97 133.99-5.7 131.77-3.53 129.54-1.35 126.72-0.23 123.89 0.9 120.84 0.9ZM120.84-0.15L120.84-0.15Q123.59-0.15 125.29-1.63 126.99-3.1 127.77-6.68 128.54-10.25 128.54-16.5L128.54-16.5Q128.54-22.8 127.77-26.38 126.99-29.95 125.29-31.43 123.59-32.9 120.84-32.9L120.84-32.9Q118.14-32.9 116.44-31.43 114.74-29.95 113.97-26.38 113.19-22.8 113.19-16.5L113.19-16.5Q113.19-10.25 113.97-6.68 114.74-3.1 116.44-1.63 118.14-0.15 120.84-0.15Z" opacity="1" transform="matrix(1,0,0,1,0,0)" fill="#ffffff" class="undefined-text-0" data-fill-palette-color="quaternary" id="text-0"></path></svg></g></svg></g></svg></g></svg></g><g></g></svg></g><defs></defs></svg><rect width="395.52" height="125.39580512669124" fill="none" stroke="none" visibility="hidden"></rect></g></svg></g></svg>